<?xml version="1.0" encoding="utf-8"?>
<!-- Generator: Adobe Illustrator 27.5.0, SVG Export Plug-In . SVG Version: 6.00 Build 0)  -->
<svg version="1.1" id="Layer_1" xmlns="http://www.w3.org/2000/svg" xmlns:xlink="http://www.w3.org/1999/xlink" x="0px" y="0px"
	 viewBox="0 0 5000 2916" style="enable-background:new 0 0 5000 2916;" xml:space="preserve">
<g>
	<g>
		<defs>
			<rect id="SVGID_1_" width="5000" height="2915.999"/>
		</defs>
		<clipPath id="SVGID_00000106127783951299788480000010309328155473355435_">
			<use xlink:href="#SVGID_1_"  style="overflow:visible;"/>
		</clipPath>
		
			<linearGradient id="SVGID_00000130619055696647634210000017085243586590858152_" gradientUnits="userSpaceOnUse" x1="3492.3801" y1="-1049.6288" x2="2061.074" y2="2567.114">
			<stop  offset="0" style="stop-color:#FFFFFF"/>
			<stop  offset="1" style="stop-color:#D3E4E5"/>
		</linearGradient>
		
			<rect style="clip-path:url(#SVGID_00000106127783951299788480000010309328155473355435_);fill:url(#SVGID_00000130619055696647634210000017085243586590858152_);" width="5000" height="2915.999"/>
	</g>
	<g>
		<defs>
			<path id="SVGID_00000129171816840489092900000002174007829888801965_" d="M4309.48,810.101
				C4309.48,492.139,4574.194,204.928,5000,0c0,996.154,0,1924.071,0,2916H3858.322c-64.209-104.412-98.758-215.264-98.758-330.129
				c0-206.349,111.49-399.747,306.144-566.108c31.381-22.786,61.126-46.175,89.149-70.123
				C4762.208,1430.565,4309.48,1257.141,4309.48,810.101"/>
		</defs>
		<clipPath id="SVGID_00000002380303283228028530000018370445690042152633_">
			<use xlink:href="#SVGID_00000129171816840489092900000002174007829888801965_"  style="overflow:visible;"/>
		</clipPath>
		
			<linearGradient id="SVGID_00000120544649819514982510000009788056793762076566_" gradientUnits="userSpaceOnUse" x1="3240.7871" y1="1129.1023" x2="4883.5503" y2="1603.4686">
			<stop  offset="0" style="stop-color:#FFFFFF"/>
			<stop  offset="1" style="stop-color:#D3E4E5"/>
		</linearGradient>
		
			<rect x="3759.564" style="clip-path:url(#SVGID_00000002380303283228028530000018370445690042152633_);fill:url(#SVGID_00000120544649819514982510000009788056793762076566_);" width="1240.435" height="2916"/>
	</g>
	<g>
		<defs>
			<path id="SVGID_00000077311973816910353330000013786153055281715897_" d="M5000,394.442v2080.79V2916h-925.122
				c427.618-435.264,278.407-693.544,129.412-984.712C3910.643,1357.425,4030.916,837.732,5000,394.442"/>
		</defs>
		<clipPath id="SVGID_00000089539095113817114350000007022517991181520771_">
			<use xlink:href="#SVGID_00000077311973816910353330000013786153055281715897_"  style="overflow:visible;"/>
		</clipPath>
		
			<linearGradient id="SVGID_00000183957799363201978890000008916415757180932504_" gradientUnits="userSpaceOnUse" x1="3651.1748" y1="1452.462" x2="4914.6206" y2="1771.0294">
			<stop  offset="0" style="stop-color:#FFFFFF"/>
			<stop  offset="1" style="stop-color:#D3E4E5"/>
		</linearGradient>
		
			<rect x="3910.643" y="394.442" style="opacity:0.55;clip-path:url(#SVGID_00000089539095113817114350000007022517991181520771_);fill:url(#SVGID_00000183957799363201978890000008916415757180932504_);" width="1089.357" height="2521.558"/>
	</g>
	<g>
		<defs>
			<path id="SVGID_00000123427008425604062650000011548290812528145818_" d="M5000,1135.495v1469.273V2916h-581.163
				c268.631-307.346,174.896-489.721,81.297-695.318C4315.664,1815.47,4391.221,1448.507,5000,1135.495"/>
		</defs>
		<clipPath id="SVGID_00000134252037953945282630000014253501847038647704_">
			<use xlink:href="#SVGID_00000123427008425604062650000011548290812528145818_"  style="overflow:visible;"/>
		</clipPath>
		
			<linearGradient id="SVGID_00000030447432710196765800000014794654177355089042_" gradientUnits="userSpaceOnUse" x1="4146.291" y1="1911.012" x2="4949.9941" y2="2091.2773">
			<stop  offset="0" style="stop-color:#FFFFFF"/>
			<stop  offset="1" style="stop-color:#D3E4E5"/>
		</linearGradient>
		
			<rect x="4315.664" y="1135.495" style="opacity:0.83;clip-path:url(#SVGID_00000134252037953945282630000014253501847038647704_);fill:url(#SVGID_00000030447432710196765800000014794654177355089042_);" width="684.336" height="1780.505"/>
	</g>
	<g>
		<defs>
			<path id="SVGID_00000006676817756927521940000000073618417365789118_" d="M5000,1954.948v793.06V2916h-318.503
				c147.221-165.894,95.851-264.333,44.554-375.308C4624.953,2321.974,4666.362,2123.901,5000,1954.948"/>
		</defs>
		<clipPath id="SVGID_00000153691615247058839720000010787865166910181293_">
			<use xlink:href="#SVGID_00000006676817756927521940000000073618417365789118_"  style="overflow:visible;"/>
		</clipPath>
		
			<linearGradient id="SVGID_00000057871130268692950940000015667839520902440890_" gradientUnits="userSpaceOnUse" x1="4532.542" y1="2371.7102" x2="4972.3804" y2="2471.8975">
			<stop  offset="0" style="stop-color:#FFFFFF"/>
			<stop  offset="1" style="stop-color:#D3E4E5"/>
		</linearGradient>
		
			<rect x="4624.953" y="1954.948" style="clip-path:url(#SVGID_00000153691615247058839720000010787865166910181293_);fill:url(#SVGID_00000057871130268692950940000015667839520902440890_);" width="375.047" height="961.052"/>
	</g>
	<g>
		<defs>
			<path id="SVGID_00000120518656455400631620000016321635722800592007_" d="M690.52,2105.898
				C690.52,2423.861,425.806,2711.072,0,2916C0,1919.846,0,991.928,0,0h1141.678c64.209,104.411,98.757,215.264,98.757,330.129
				c0,206.349-111.489,399.746-306.144,566.107c-31.382,22.786-61.127,46.175-89.149,70.123
				C237.792,1485.434,690.52,1658.859,690.52,2105.898"/>
		</defs>
		<clipPath id="SVGID_00000093172670236575462420000000925899244203973302_">
			<use xlink:href="#SVGID_00000120518656455400631620000016321635722800592007_"  style="overflow:visible;"/>
		</clipPath>
		
			<linearGradient id="SVGID_00000183215626646871718700000002797178232305547154_" gradientUnits="userSpaceOnUse" x1="1759.2059" y1="1786.8955" x2="116.4431" y2="1312.5295">
			<stop  offset="0" style="stop-color:#FFFFFF"/>
			<stop  offset="1" style="stop-color:#D3E4E5"/>
		</linearGradient>
		
			<rect style="clip-path:url(#SVGID_00000093172670236575462420000000925899244203973302_);fill:url(#SVGID_00000183215626646871718700000002797178232305547154_);" width="1240.435" height="2916"/>
	</g>
	<g>
		<defs>
			<path id="SVGID_00000132073545747676090060000013116270781625455236_" d="M0,2521.557V440.768V0h925.122
				C497.504,435.263,646.716,693.543,795.71,984.712C1089.357,1558.575,969.084,2078.268,0,2521.557"/>
		</defs>
		<clipPath id="SVGID_00000119837921647864267230000003525693767549625531_">
			<use xlink:href="#SVGID_00000132073545747676090060000013116270781625455236_"  style="overflow:visible;"/>
		</clipPath>
		
			<linearGradient id="SVGID_00000046340002914612967120000006918276268004722845_" gradientUnits="userSpaceOnUse" x1="1348.8136" y1="1463.5104" x2="85.4188" y2="1144.9943">
			<stop  offset="0" style="stop-color:#FFFFFF"/>
			<stop  offset="1" style="stop-color:#D3E4E5"/>
		</linearGradient>
		
			<rect style="opacity:0.55;clip-path:url(#SVGID_00000119837921647864267230000003525693767549625531_);fill:url(#SVGID_00000046340002914612967120000006918276268004722845_);" width="1089.357" height="2521.557"/>
	</g>
	<g>
		<defs>
			<path id="SVGID_00000026866198586890878290000015300305467713306523_" d="M0,1780.506V311.231V0h581.163
				c-268.631,307.346-174.896,489.72-81.297,695.318C684.336,1100.529,608.78,1467.492,0,1780.506"/>
		</defs>
		<clipPath id="SVGID_00000105414756039512050240000000483058793918931639_">
			<use xlink:href="#SVGID_00000026866198586890878290000015300305467713306523_"  style="overflow:visible;"/>
		</clipPath>
		
			<linearGradient id="SVGID_00000124146451401929616850000015198252458560827541_" gradientUnits="userSpaceOnUse" x1="853.7018" y1="1004.986" x2="49.9984" y2="824.7215">
			<stop  offset="0" style="stop-color:#FFFFFF"/>
			<stop  offset="1" style="stop-color:#D3E4E5"/>
		</linearGradient>
		
			<rect style="opacity:0.83;clip-path:url(#SVGID_00000105414756039512050240000000483058793918931639_);fill:url(#SVGID_00000124146451401929616850000015198252458560827541_);" width="684.336" height="1780.506"/>
	</g>
	<g>
		<defs>
			<path id="SVGID_00000085972804758189444880000016926762571686479038_" d="M0,961.051v-793.06V0h318.504
				c-147.221,165.894-95.851,264.333-44.553,375.308C375.047,594.026,333.639,792.099,0,961.051"/>
		</defs>
		<clipPath id="SVGID_00000041256094107287869560000006085364134091685543_">
			<use xlink:href="#SVGID_00000085972804758189444880000016926762571686479038_"  style="overflow:visible;"/>
		</clipPath>
		
			<linearGradient id="SVGID_00000110456615380358195660000015318042997737759123_" gradientUnits="userSpaceOnUse" x1="467.4471" y1="544.2615" x2="27.6597" y2="444.1261">
			<stop  offset="0" style="stop-color:#FFFFFF"/>
			<stop  offset="1" style="stop-color:#D3E4E5"/>
		</linearGradient>
		
			<rect style="clip-path:url(#SVGID_00000041256094107287869560000006085364134091685543_);fill:url(#SVGID_00000110456615380358195660000015318042997737759123_);" width="375.047" height="961.051"/>
	</g>
</g>
</svg>
